<svg xmlns="http://www.w3.org/2000/svg" viewBox="0 0 250 250" width="250" height="250"><path fill="#bbb" d="M0 0h250v250H0z"/><g enable-background="new" fill="#fff"><path d="M66.4 121.2V81.1h4.5v3.8c1.1-1.5 2.3-2.6 3.6-3.3 1.3-.7 2.9-1.1 4.8-1.1 2.5 0 4.7.6 6.6 1.9 1.9 1.3 3.3 3.1 4.3 5.4 1 2.3 1.4 4.9 1.4 7.6 0 3-.5 5.6-1.6 8s-2.6 4.2-4.6 5.5c-2 1.3-4.2 1.9-6.4 1.9-1.6 0-3.1-.3-4.4-1-1.3-.7-2.4-1.6-3.2-2.6v14.1h-5zm4.4-25.5c0 3.7.8 6.5 2.3 8.3 1.5 1.8 3.3 2.7 5.5 2.7s4.1-.9 5.6-2.8c1.6-1.8 2.3-4.7 2.3-8.6 0-3.7-.8-6.5-2.3-8.3-1.5-1.8-3.3-2.8-5.5-2.8-2.1 0-4 1-5.6 2.9-1.4 2.1-2.3 4.9-2.3 8.6zM97.4 110.1V70h4.9v40.1h-4.9zM128.9 106.5c-1.8 1.5-3.6 2.6-5.3 3.3s-3.5 1-5.4 1c-3.2 0-5.6-.8-7.4-2.3-1.7-1.6-2.6-3.5-2.6-6 0-1.4.3-2.7 1-3.9.6-1.2 1.5-2.1 2.5-2.8 1-.7 2.2-1.2 3.5-1.6 1-.3 2.4-.5 4.4-.7 4-.5 6.9-1 8.8-1.7v-1.3c0-2-.5-3.4-1.4-4.2-1.3-1.1-3.1-1.7-5.6-1.7-2.3 0-4 .4-5.1 1.2-1.1.8-1.9 2.2-2.4 4.3l-4.8-.7c.4-2.1 1.2-3.7 2.2-5 1-1.3 2.5-2.2 4.3-2.9 1.9-.7 4.1-1 6.6-1s4.5.3 6 .9c1.5.6 2.7 1.3 3.4 2.2.7.9 1.2 2 1.5 3.3.2.8.2 2.4.2 4.5V98c0 4.6.1 7.5.3 8.7.2 1.2.6 2.4 1.2 3.5h-5.1c-.3-1.1-.6-2.3-.8-3.7zm-.4-11c-1.8.7-4.5 1.3-8 1.9-2 .3-3.5.6-4.3 1-.8.4-1.5.9-1.9 1.6-.5.7-.7 1.5-.7 2.3 0 1.3.5 2.4 1.5 3.3 1 .9 2.4 1.3 4.4 1.3 1.9 0 3.6-.4 5.1-1.2 1.5-.8 2.6-2 3.3-3.4.5-1.1.8-2.8.8-4.9v-1.9zM160.1 99.5l4.8.6c-.5 3.3-1.9 5.9-4.1 7.8s-4.9 2.8-8 2.8c-4 0-7.2-1.3-9.6-3.9s-3.6-6.3-3.6-11.2c0-3.1.5-5.9 1.6-8.2s2.6-4.1 4.7-5.3 4.4-1.8 6.9-1.8c3.2 0 5.7.8 7.7 2.4 2 1.6 3.3 3.9 3.9 6.8l-4.8.7c-.5-2-1.3-3.4-2.4-4.4s-2.6-1.5-4.2-1.5c-2.5 0-4.5.9-6 2.7s-2.3 4.6-2.3 8.4c0 3.9.7 6.7 2.2 8.5 1.5 1.8 3.4 2.7 5.9 2.7 1.9 0 3.5-.6 4.8-1.8 1.3-1.1 2.1-2.9 2.5-5.3zM189 100.7l5.1.6c-.8 3-2.3 5.3-4.5 6.9s-4.9 2.5-8.3 2.5c-4.2 0-7.6-1.3-10.1-3.9-2.5-2.6-3.7-6.3-3.7-11 0-4.9 1.3-8.7 3.8-11.4 2.5-2.7 5.8-4 9.8-4 3.9 0 7.1 1.3 9.5 4 2.5 2.6 3.7 6.4 3.7 11.2v1.3h-21.7c.2 3.2 1.1 5.6 2.7 7.3s3.6 2.5 6.1 2.5c1.8 0 3.3-.5 4.6-1.4 1.2-1 2.3-2.5 3-4.6zm-16.2-7.9H189c-.2-2.4-.8-4.3-1.9-5.5-1.6-1.9-3.6-2.8-6.1-2.8-2.3 0-4.2.8-5.7 2.3-1.4 1.4-2.3 3.5-2.5 6z"/></g><g enable-background="new" fill="#fff"><path d="M51 177.3v-40.1h5v14.4c2.3-2.7 5.2-4 8.7-4 2.2 0 4 .4 5.6 1.3s2.7 2 3.4 3.5c.7 1.5 1 3.7 1 6.5v18.4h-4.9v-18.4c0-2.5-.5-4.3-1.6-5.4s-2.6-1.7-4.5-1.7c-1.5 0-2.8.4-4.1 1.1-1.3.8-2.2 1.8-2.7 3.1s-.8 3.1-.8 5.4v15.9H51zM80.3 162.8c0-5.4 1.5-9.4 4.5-11.9 2.5-2.2 5.5-3.2 9.1-3.2 4 0 7.3 1.3 9.8 3.9 2.5 2.6 3.8 6.2 3.8 10.8 0 3.7-.6 6.7-1.7 8.8-1.1 2.1-2.8 3.8-4.9 5-2.1 1.2-4.5 1.8-7 1.8-4.1 0-7.4-1.3-9.9-3.9-2.4-2.7-3.7-6.4-3.7-11.3zm5.1 0c0 3.7.8 6.5 2.4 8.4 1.6 1.9 3.7 2.8 6.1 2.8 2.4 0 4.5-.9 6.1-2.8 1.6-1.9 2.4-4.7 2.4-8.5 0-3.6-.8-6.3-2.4-8.2-1.6-1.8-3.7-2.8-6.1-2.8-2.5 0-4.5.9-6.1 2.8-1.6 1.8-2.4 4.6-2.4 8.3zM113.2 177.3v-40.1h4.9v40.1h-4.9zM144.6 177.3v-3.7c-1.8 2.9-4.5 4.3-8.1 4.3-2.3 0-4.4-.6-6.4-1.9s-3.4-3.1-4.5-5.3c-1.1-2.3-1.6-4.9-1.6-7.9 0-2.9.5-5.5 1.4-7.9 1-2.4 2.4-4.2 4.3-5.4 1.9-1.3 4.1-1.9 6.5-1.9 1.8 0 3.3.4 4.7 1.1s2.5 1.7 3.3 2.9v-14.4h4.9v40.1h-4.5zM129 162.8c0 3.7.8 6.5 2.4 8.3 1.6 1.8 3.4 2.8 5.6 2.8 2.2 0 4-.9 5.5-2.6 1.5-1.8 2.3-4.4 2.3-8.1 0-4-.8-6.9-2.3-8.8s-3.4-2.8-5.7-2.8c-2.2 0-4 .9-5.5 2.7-1.5 1.8-2.3 4.7-2.3 8.5zM176.8 167.9l5.1.6c-.8 3-2.3 5.3-4.5 6.9-2.2 1.6-4.9 2.5-8.3 2.5-4.2 0-7.6-1.3-10.1-3.9-2.5-2.6-3.7-6.3-3.7-11 0-4.9 1.3-8.7 3.8-11.4 2.5-2.7 5.8-4 9.8-4 3.9 0 7.1 1.3 9.5 4 2.5 2.6 3.7 6.4 3.7 11.2v1.3h-21.7c.2 3.2 1.1 5.6 2.7 7.3 1.6 1.7 3.6 2.5 6.1 2.5 1.8 0 3.3-.5 4.6-1.4 1.2-1 2.2-2.5 3-4.6zm-16.2-7.9h16.2c-.2-2.4-.8-4.3-1.9-5.5-1.6-1.9-3.6-2.8-6.1-2.8-2.3 0-4.2.8-5.7 2.3-1.5 1.4-2.3 3.5-2.5 6zM188 177.3v-29h4.4v4.4c1.1-2.1 2.2-3.4 3.1-4.1s2-1 3.2-1c1.7 0 3.3.5 5.1 1.6l-1.7 4.6c-1.2-.7-2.4-1.1-3.6-1.1-1.1 0-2 .3-2.9 1-.9.6-1.5 1.5-1.8 2.7-.5 1.8-.8 3.7-.8 5.7v15.2h-5z"/></g></svg>