<?xml version="1.0" encoding="utf-8"?>
<!-- Generator: Adobe Illustrator 18.1.1, SVG Export Plug-In . SVG Version: 6.00 Build 0)  -->
<!DOCTYPE svg PUBLIC "-//W3C//DTD SVG 1.1//EN" "http://www.w3.org/Graphics/SVG/1.1/DTD/svg11.dtd">
<svg version="1.1" id="Layer_1" xmlns="http://www.w3.org/2000/svg" xmlns:xlink="http://www.w3.org/1999/xlink" x="0px" y="0px"
	 viewBox="0 0 1024 1024" width="1024" height="1024" preserveAspectRatio="xMidYMid meet" enable-background="new 0 0 1024 1024" xml:space="preserve">

<path opacity="0.75" fill="#FFFFFF" d="M444,70c0-37.6,30.4-68,68-68s68,30.4,68,68C580,276.3,747.7,444,954,444
	c37.6,0,68,30.4,68,68s-30.4,68-68,68C747.7,580,580,747.7,580,954c0,37.6-30.4,68-68,68s-68-30.4-68-68C444,747.7,276.3,580,70,580
	c-37.6,0-68-30.4-68-68c0-37.6,30.4-68.9,68-68c104,3.1,359.7-144.6,359.7-144.6C407,361.7,233.6,511.9,233.6,511.9
	c78.2,44.8,233.6,155.4,278.4,233.6c45.3-78.2,200.7-188.3,278.4-233.6c-78.2-45.3-233.6-155.4-278.4-233.6
	C512,278.9,444,192.4,444,70z"/>
</svg>

