<svg xmlns="http://www.w3.org/2000/svg" viewBox="0 0 1024 1024" width="1024" height="1024"><path opacity=".75" fill="#fff" d="M444 70c0-37.6 30.4-68 68-68s68 30.4 68 68c0 206.3 167.7 374 374 374 37.6 0 68 30.4 68 68s-30.4 68-68 68c-206.3 0-374 167.7-374 374 0 37.6-30.4 68-68 68s-68-30.4-68-68c0-206.3-167.7-374-374-374-37.6 0-68-30.4-68-68s30.4-68.9 68-68c104 3.1 359.7-144.6 359.7-144.6-22.7 62.3-196.1 212.5-196.1 212.5 78.2 44.8 233.6 155.4 278.4 233.6 45.3-78.2 200.7-188.3 278.4-233.6-78.2-45.3-233.6-155.4-278.4-233.6 0 .6-68-85.9-68-208.3z"/></svg>