<?xml version="1.0" encoding="utf-8"?>
<!-- Generator: Adobe Illustrator 18.1.0, SVG Export Plug-In . SVG Version: 6.00 Build 0)  -->
<!DOCTYPE svg PUBLIC "-//W3C//DTD SVG 1.1//EN" "http://www.w3.org/Graphics/SVG/1.1/DTD/svg11.dtd">
<svg version="1.1" id="Layer_1" xmlns="http://www.w3.org/2000/svg" xmlns:xlink="http://www.w3.org/1999/xlink" x="0px" y="0px"
	 viewBox="0 0 250 250" width="250" height="250" preserveAspectRatio="xMidYMid meet" enable-background="new 0 0 250 250" xml:space="preserve">
<rect fill="#BBBBBB" width="250" height="250"/>
<g enable-background="new    ">
	<path fill="#FFFFFF" d="M66.4,121.2V81.1h4.5v3.8c1.1-1.5,2.3-2.6,3.6-3.3c1.3-0.7,2.9-1.1,4.8-1.1c2.5,0,4.7,0.6,6.6,1.9
		c1.9,1.3,3.3,3.1,4.3,5.4c1,2.3,1.4,4.9,1.4,7.6c0,3-0.5,5.6-1.6,8s-2.6,4.2-4.6,5.5c-2,1.3-4.2,1.9-6.4,1.9c-1.6,0-3.1-0.3-4.4-1
		c-1.3-0.7-2.4-1.6-3.2-2.6v14.1H66.4z M70.8,95.7c0,3.7,0.8,6.5,2.3,8.3c1.5,1.8,3.3,2.7,5.5,2.7c2.2,0,4.1-0.9,5.6-2.8
		c1.6-1.8,2.3-4.7,2.3-8.6c0-3.7-0.8-6.5-2.3-8.3c-1.5-1.8-3.3-2.8-5.5-2.8c-2.1,0-4,1-5.6,2.9C71.7,89.2,70.8,92,70.8,95.7z"/>
	<path fill="#FFFFFF" d="M97.4,110.1V70h4.9v40.1H97.4z"/>
	<path fill="#FFFFFF" d="M128.9,106.5c-1.8,1.5-3.6,2.6-5.3,3.3s-3.5,1-5.4,1c-3.2,0-5.6-0.8-7.4-2.3c-1.7-1.6-2.6-3.5-2.6-6
		c0-1.4,0.3-2.7,1-3.9c0.6-1.2,1.5-2.1,2.5-2.8c1-0.7,2.2-1.2,3.5-1.6c1-0.3,2.4-0.5,4.4-0.7c4-0.5,6.9-1,8.8-1.7c0-0.7,0-1.1,0-1.3
		c0-2-0.5-3.4-1.4-4.2c-1.3-1.1-3.1-1.7-5.6-1.7c-2.3,0-4,0.4-5.1,1.2c-1.1,0.8-1.9,2.2-2.4,4.3l-4.8-0.7c0.4-2.1,1.2-3.7,2.2-5
		c1-1.3,2.5-2.2,4.3-2.9c1.9-0.7,4.1-1,6.6-1c2.5,0,4.5,0.3,6,0.9c1.5,0.6,2.7,1.3,3.4,2.2c0.7,0.9,1.2,2,1.5,3.3
		c0.2,0.8,0.2,2.4,0.2,4.5v6.6c0,4.6,0.1,7.5,0.3,8.7c0.2,1.2,0.6,2.4,1.2,3.5h-5.1C129.4,109.1,129.1,107.9,128.9,106.5z
		 M128.5,95.5c-1.8,0.7-4.5,1.3-8,1.9c-2,0.3-3.5,0.6-4.3,1c-0.8,0.4-1.5,0.9-1.9,1.6c-0.5,0.7-0.7,1.5-0.7,2.3
		c0,1.3,0.5,2.4,1.5,3.3c1,0.9,2.4,1.3,4.4,1.3c1.9,0,3.6-0.4,5.1-1.2c1.5-0.8,2.6-2,3.3-3.4c0.5-1.1,0.8-2.8,0.8-4.9V95.5z"/>
	<path fill="#FFFFFF" d="M160.1,99.5l4.8,0.6c-0.5,3.3-1.9,5.9-4.1,7.8s-4.9,2.8-8,2.8c-4,0-7.2-1.3-9.6-3.9s-3.6-6.3-3.6-11.2
		c0-3.1,0.5-5.9,1.6-8.2s2.6-4.1,4.7-5.3s4.4-1.8,6.9-1.8c3.2,0,5.7,0.8,7.7,2.4c2,1.6,3.3,3.9,3.9,6.8l-4.8,0.7
		c-0.5-2-1.3-3.4-2.4-4.4s-2.6-1.5-4.2-1.5c-2.5,0-4.5,0.9-6,2.7s-2.3,4.6-2.3,8.4c0,3.9,0.7,6.7,2.2,8.5c1.5,1.8,3.4,2.7,5.9,2.7
		c1.9,0,3.5-0.6,4.8-1.8C158.9,103.7,159.7,101.9,160.1,99.5z"/>
	<path fill="#FFFFFF" d="M189,100.7l5.1,0.6c-0.8,3-2.3,5.3-4.5,6.9s-4.9,2.5-8.3,2.5c-4.2,0-7.6-1.3-10.1-3.9
		c-2.5-2.6-3.7-6.3-3.7-11c0-4.9,1.3-8.7,3.8-11.4c2.5-2.7,5.8-4,9.8-4c3.9,0,7.1,1.3,9.5,4c2.5,2.6,3.7,6.4,3.7,11.2
		c0,0.3,0,0.7,0,1.3h-21.7c0.2,3.2,1.1,5.6,2.7,7.3s3.6,2.5,6.1,2.5c1.8,0,3.3-0.5,4.6-1.4C187.2,104.3,188.3,102.8,189,100.7z
		 M172.8,92.8h16.2c-0.2-2.4-0.8-4.3-1.9-5.5c-1.6-1.9-3.6-2.8-6.1-2.8c-2.3,0-4.2,0.8-5.7,2.3C173.9,88.2,173,90.3,172.8,92.8z"/>
</g>
<g enable-background="new    ">
	<path fill="#FFFFFF" d="M51,177.3v-40.1H56v14.4c2.3-2.7,5.2-4,8.7-4c2.2,0,4,0.4,5.6,1.3s2.7,2,3.4,3.5c0.7,1.5,1,3.7,1,6.5v18.4
		h-4.9v-18.4c0-2.5-0.5-4.3-1.6-5.4s-2.6-1.7-4.5-1.7c-1.5,0-2.8,0.4-4.1,1.1c-1.3,0.8-2.2,1.8-2.7,3.1c-0.5,1.3-0.8,3.1-0.8,5.4
		v15.9H51z"/>
	<path fill="#FFFFFF" d="M80.3,162.8c0-5.4,1.5-9.4,4.5-11.9c2.5-2.2,5.5-3.2,9.1-3.2c4,0,7.3,1.3,9.8,3.9c2.5,2.6,3.8,6.2,3.8,10.8
		c0,3.7-0.6,6.7-1.7,8.8c-1.1,2.1-2.8,3.8-4.9,5c-2.1,1.2-4.5,1.8-7,1.8c-4.1,0-7.4-1.3-9.9-3.9C81.6,171.4,80.3,167.7,80.3,162.8z
		 M85.4,162.8c0,3.7,0.8,6.5,2.4,8.4c1.6,1.9,3.7,2.8,6.1,2.8c2.4,0,4.5-0.9,6.1-2.8c1.6-1.9,2.4-4.7,2.4-8.5c0-3.6-0.8-6.3-2.4-8.2
		c-1.6-1.8-3.7-2.8-6.1-2.8c-2.5,0-4.5,0.9-6.1,2.8C86.2,156.3,85.4,159.1,85.4,162.8z"/>
	<path fill="#FFFFFF" d="M113.2,177.3v-40.1h4.9v40.1H113.2z"/>
	<path fill="#FFFFFF" d="M144.6,177.3v-3.7c-1.8,2.9-4.5,4.3-8.1,4.3c-2.3,0-4.4-0.6-6.4-1.9s-3.4-3.1-4.5-5.3
		c-1.1-2.3-1.6-4.9-1.6-7.9c0-2.9,0.5-5.5,1.4-7.9c1-2.4,2.4-4.2,4.3-5.4c1.9-1.3,4.1-1.9,6.5-1.9c1.8,0,3.3,0.4,4.7,1.1
		s2.5,1.7,3.3,2.9v-14.4h4.9v40.1H144.6z M129,162.8c0,3.7,0.8,6.5,2.4,8.3c1.6,1.8,3.4,2.8,5.6,2.8c2.2,0,4-0.9,5.5-2.6
		c1.5-1.8,2.3-4.4,2.3-8.1c0-4-0.8-6.9-2.3-8.8s-3.4-2.8-5.7-2.8c-2.2,0-4,0.9-5.5,2.7C129.8,156.1,129,159,129,162.8z"/>
	<path fill="#FFFFFF" d="M176.8,167.9l5.1,0.6c-0.8,3-2.3,5.3-4.5,6.9c-2.2,1.6-4.9,2.5-8.3,2.5c-4.2,0-7.6-1.3-10.1-3.9
		c-2.5-2.6-3.7-6.3-3.7-11c0-4.9,1.3-8.7,3.8-11.4c2.5-2.7,5.8-4,9.8-4c3.9,0,7.1,1.3,9.5,4c2.5,2.6,3.7,6.4,3.7,11.2
		c0,0.3,0,0.7,0,1.3h-21.7c0.2,3.2,1.1,5.6,2.7,7.3c1.6,1.7,3.6,2.5,6.1,2.5c1.8,0,3.3-0.5,4.6-1.4C175,171.5,176,170,176.8,167.9z
		 M160.6,160h16.2c-0.2-2.4-0.8-4.3-1.9-5.5c-1.6-1.9-3.6-2.8-6.1-2.8c-2.3,0-4.2,0.8-5.7,2.3C161.6,155.4,160.8,157.5,160.6,160z"
		/>
	<path fill="#FFFFFF" d="M188,177.3v-29h4.4v4.4c1.1-2.1,2.2-3.4,3.1-4.1s2-1,3.2-1c1.7,0,3.3,0.5,5.1,1.6l-1.7,4.6
		c-1.2-0.7-2.4-1.1-3.6-1.1c-1.1,0-2,0.3-2.9,1c-0.9,0.6-1.5,1.5-1.8,2.7c-0.5,1.8-0.8,3.7-0.8,5.7v15.2H188z"/>
</g>
</svg>
